HIERARCHY
ROOT joint_Root
{
	OFFSET 0.0 0.0 0.0
	CHANNELS 6 Xposition Yposition Zposition Zrotation Xrotation Yrotation 
	JOINT Hips
	{
		OFFSET -17.1583 93.1646 452.98
		CHANNELS 6 Xposition Yposition Zposition Zrotation Xrotation Yrotation 
		JOINT Spine
		{
			OFFSET 15.7357 0.0 0.0
			CHANNELS 6 Xposition Yposition Zposition Zrotation Xrotation Yrotation 
			JOINT Chest
			{
				OFFSET 8.98455 -0.406207 0.0
				CHANNELS 6 Xposition Yposition Zposition Zrotation Xrotation Yrotation 
				JOINT Neck
				{
					OFFSET 16.3773 0.0 0.0
					CHANNELS 6 Xposition Yposition Zposition Zrotation Xrotation Yrotation 
					JOINT Head
					{
						OFFSET 6.45672 0.0 0.0
						CHANNELS 6 Xposition Yposition Zposition Zrotation Xrotation Yrotation 
						End Site
						{
							OFFSET 0.0 0.0 0.0
						}
					}
				}
				JOINT Shoulder_L
				{
					OFFSET 12.9942 -0.242716 4.98039
					CHANNELS 6 Xposition Yposition Zposition Zrotation Xrotation Yrotation 
					JOINT UpperArm_L
					{
						OFFSET 5.34809 0.0 0.0
						CHANNELS 6 Xposition Yposition Zposition Zrotation Xrotation Yrotation 
						JOINT LowerArm_L
						{
							OFFSET 24.3286 1.87007e-05 0.0
							CHANNELS 6 Xposition Yposition Zposition Zrotation Xrotation Yrotation 
							JOINT Hand_L
							{
								OFFSET 22.2916 0.0 0.0
								CHANNELS 6 Xposition Yposition Zposition Zrotation Xrotation Yrotation 
								End Site
								{
									OFFSET 0.0 0.0 0.0
								}
							}
						}
					}
				}
				JOINT Shoulder_R
				{
					OFFSET 12.9945 -0.242716 -4.98039
					CHANNELS 6 Xposition Yposition Zposition Zrotation Xrotation Yrotation 
					JOINT UpperArm_R
					{
						OFFSET -5.34813 0.0 0.0
						CHANNELS 6 Xposition Yposition Zposition Zrotation Xrotation Yrotation 
						JOINT LowerArm_R
						{
							OFFSET -24.3289 0.000322201 0.0
							CHANNELS 6 Xposition Yposition Zposition Zrotation Xrotation Yrotation 
							JOINT Hand_R
							{
								OFFSET -22.2915 -0.000108084 0.0
								CHANNELS 6 Xposition Yposition Zposition Zrotation Xrotation Yrotation 
								End Site
								{
									OFFSET 0.0 0.0 0.0
								}
							}
						}
					}
				}
			}
		}
		JOINT UpperLeg_L
		{
			OFFSET -2.19248 -6.46944 0.0
			CHANNELS 6 Xposition Yposition Zposition Zrotation Xrotation Yrotation 
			JOINT LowerLeg_L
			{
				OFFSET 39.0811 0.0 -1.23785e-05
				CHANNELS 6 Xposition Yposition Zposition Zrotation Xrotation Yrotation 
				JOINT Foot_L
				{
					OFFSET 40.9854 0.0 -1.26872e-05
					CHANNELS 6 Xposition Yposition Zposition Zrotation Xrotation Yrotation 
					JOINT Toes_L
					{
						OFFSET 11.7543 0.0 0.0
						CHANNELS 6 Xposition Yposition Zposition Zrotation Xrotation Yrotation 
						End Site
						{
							OFFSET 0.0 0.0 0.0
						}
					}
				}
			}
		}
		JOINT UpperLeg_R
		{
			OFFSET -2.19251 6.46944 0.0
			CHANNELS 6 Xposition Yposition Zposition Zrotation Xrotation Yrotation 
			JOINT LowerLeg_R
			{
				OFFSET -39.0811 -0.00228153 -0.0401928
				CHANNELS 6 Xposition Yposition Zposition Zrotation Xrotation Yrotation 
				JOINT Foot_R
				{
					OFFSET -40.9854 0.0 0.0
					CHANNELS 6 Xposition Yposition Zposition Zrotation Xrotation Yrotation 
					JOINT Toes_R
					{
						OFFSET -11.7543 0.0 0.0
						CHANNELS 6 Xposition Yposition Zposition Zrotation Xrotation Yrotation 
						End Site
						{
							OFFSET 0.0 0.0 0.0
						}
					}
				}
			}
		}
	}
}
MOTION
Frames:	6
Frame Time:	0.0333333
0.000000 0.000000 0.000000 0.000000 0.000000 -0.000000 -1.919440 93.162300 -1.255670 87.650700 -0.636220 0.942039 15.735700 0.000005 -0.000001 92.657500 86.056600 -91.319200 8.984550 -0.406207 -0.000000 0.110440 0.276190 2.674570 16.377300 -0.000001 -0.000001 -2.669610 2.154950 -1.957890 6.456720 -0.000001 -0.000000 0.556972 1.957360 -0.237018 12.994200 -0.242716 4.980390 -91.910100 5.743400 -71.568600 5.348090 -0.000007 -0.000001 -73.153100 14.417200 -5.076570 24.328600 0.000019 0.000005 5.307370 22.786000 -13.483300 22.291600 -0.000001 0.000005 -13.123400 5.247530 1.565540 12.994500 -0.242716 -4.980390 89.402100 1.994730 -73.309600 -5.348130 -0.000001 -0.000004 -73.838700 17.550300 -5.148160 -24.328900 0.000322 -0.000009 -0.751860 -6.421360 -6.699960 -22.291500 -0.000108 -0.000004 -7.579430 5.287500 0.441796 -2.192480 -6.469440 -0.000000 -171.611000 -6.405260 -1.729230 39.081100 -0.000007 -0.000012 -0.004398 0.015974 15.391200 40.985400 -0.000006 -0.000013 -2.108700 14.808700 -68.399700 11.754300 -0.000000 0.000003 -0.000880 0.181310 -9.222100 -2.192510 6.469440 -0.000001 178.531000 6.222370 -179.977000 -39.081100 -0.002282 -0.040193 0.030400 -0.120489 12.660300 -40.985400 0.000008 0.000006 -4.524560 4.643210 -67.674000 -11.754300 -0.000006 -0.000006 -0.010138 0.272329 -5.509090
0.000000 0.000000 0.000000 0.000000 0.000000 -0.000000 -1.910400 93.168300 -0.859895 87.656500 -0.710451 0.164022 15.735700 0.000005 -0.000001 92.964100 86.680100 -91.669700 8.984550 -0.406207 -0.000000 -1.136590 0.242741 2.590330 16.377300 -0.000001 -0.000001 -3.115800 2.131440 -1.910190 6.456720 -0.000001 -0.000000 0.395604 2.139670 -0.287770 12.994200 -0.242716 4.980390 -91.721600 4.932900 -70.732100 5.348090 -0.000007 -0.000001 -71.008700 -0.850252 -5.734360 24.328600 0.000019 0.000005 2.545510 21.796800 -6.826080 22.291600 -0.000001 0.000005 -20.347800 5.133880 4.369320 12.994500 -0.242716 -4.980390 89.609700 1.254130 -72.710200 -5.348130 -0.000001 -0.000004 -72.251500 7.832970 -4.555930 -24.328900 0.000322 -0.000009 -0.210367 -9.766720 -1.238670 -22.291500 -0.000108 -0.000004 -10.122700 5.205160 2.603230 -2.192480 -6.469440 -0.000000 -171.666000 -6.627050 -2.000850 39.081100 -0.000007 -0.000012 -0.005032 0.018806 14.978500 40.985400 -0.000006 -0.000013 -2.112010 14.877700 -68.577400 11.754300 -0.000000 0.000003 -0.000792 0.180039 -9.273740 -2.192510 6.469440 -0.000001 178.534000 6.283660 179.716000 -39.081100 -0.002282 -0.040193 0.027391 -0.111008 12.227500 -40.985400 0.000008 0.000006 -4.849090 4.788650 -67.665300 -11.754300 -0.000006 -0.000006 -0.010468 0.274770 -5.409250
0.000000 0.000000 0.000000 0.000000 0.000000 -0.000000 -1.912240 93.161200 -0.275101 87.633200 -0.937931 -0.642567 15.735700 0.000005 -0.000001 92.984900 87.368400 -91.719500 8.984550 -0.406207 -0.000000 -2.510560 0.160541 2.534390 16.377300 -0.000001 -0.000001 -3.951260 2.276120 -1.963290 6.456720 -0.000001 -0.000000 0.268578 2.414490 -0.403885 12.994200 -0.242716 4.980390 -91.474500 3.961360 -69.563200 5.348090 -0.000007 -0.000001 -66.458900 -17.580900 -6.131350 24.328600 0.000019 0.000005 0.756212 22.549600 -1.973200 22.291600 -0.000001 0.000005 -23.638700 4.960740 8.149300 12.994500 -0.242716 -4.980390 89.939500 0.185934 -71.962000 -5.348130 -0.000001 -0.000004 -68.492900 -3.850120 -3.634840 -24.328900 0.000322 -0.000009 -0.001522 -9.903170 -0.000058 -22.291500 -0.000108 -0.000004 -11.684100 5.113850 4.796650 -2.192480 -6.469440 -0.000000 -171.689000 -6.945510 -2.073130 39.081100 -0.000007 -0.000012 -0.003289 0.012745 14.468800 40.985400 -0.000006 -0.000013 -2.115460 14.870700 -68.859700 11.754300 -0.000000 0.000003 -0.000780 0.179863 -9.280910 -2.192510 6.469440 -0.000001 178.536000 6.276380 179.612000 -39.081100 -0.002282 -0.040193 0.022454 -0.093318 11.577500 -40.985400 0.000008 0.000006 -5.162680 5.074190 -67.597200 -11.754300 -0.000006 -0.000006 -0.010295 0.273496 -5.461360
0.000000 0.000000 0.000000 0.000000 0.000000 -0.000000 -1.910190 93.147800 0.455126 87.616300 -1.260130 -1.513910 15.735700 0.000005 -0.000001 93.219300 88.122400 -92.013500 8.984550 -0.406207 -0.000000 -4.016530 0.086825 2.415780 16.377300 -0.000001 -0.000001 -5.043640 2.438490 -1.976450 6.456720 -0.000001 -0.000000 -0.024294 2.768100 -0.482761 12.994200 -0.242716 4.980390 -91.351400 3.357200 -68.056900 5.348090 -0.000007 -0.000001 -58.925400 -30.992800 -5.703900 24.328600 0.000019 0.000005 0.488528 24.278600 -1.187870 22.291600 -0.000001 0.000005 -22.881000 4.809030 11.131700 12.994500 -0.242716 -4.980390 90.228100 -0.661225 -70.969400 -5.348130 -0.000001 -0.000004 -62.063000 -15.125300 -1.839880 -24.328900 0.000322 -0.000009 -0.000993 -7.376730 -0.000045 -22.291500 -0.000108 -0.000004 -11.459200 5.009260 7.115440 -2.192480 -6.469440 -0.000000 -171.724000 -7.322490 -1.987110 39.081100 -0.000007 -0.000012 -0.001530 0.006251 13.748900 40.985400 -0.000006 -0.000013 -2.131260 14.840600 -69.130100 11.754300 -0.000000 0.000003 -0.000872 0.181206 -9.226350 -2.192510 6.469440 -0.000001 178.496000 6.174080 179.570000 -39.081100 -0.002282 -0.040193 0.016665 -0.069718 10.822200 -40.985400 0.000008 0.000006 -5.784810 5.368880 -67.481300 -11.754300 -0.000006 -0.000006 -0.010450 0.274641 -5.414510
0.000000 0.000000 0.000000 0.000000 0.000000 -0.000000 -1.923480 93.090900 1.346270 87.591100 -1.527370 -2.167670 15.735700 0.000005 -0.000001 94.806900 88.896400 -93.654400 8.984550 -0.406207 -0.000000 -5.566040 0.050730 2.309960 16.377300 -0.000001 -0.000001 -5.966910 2.633170 -2.051320 6.456720 -0.000001 -0.000000 -0.270051 3.062400 -0.530477 12.994200 -0.242716 4.980390 -91.096800 2.509450 -66.377800 5.348090 -0.000007 -0.000001 -50.396100 -41.433200 -5.671200 24.328600 0.000019 0.000005 0.166598 21.218900 -0.458383 22.291600 -0.000001 0.000005 -15.764400 4.713460 12.867600 12.994500 -0.242716 -4.980390 90.520300 -1.404330 -69.673400 -5.348130 -0.000001 -0.000004 -53.525700 -24.297200 0.186178 -24.328900 0.000322 -0.000009 -0.001024 -6.992330 -0.000043 -22.291500 -0.000108 -0.000004 -8.892930 4.964620 8.066200 -2.192480 -6.469440 -0.000000 -171.721000 -7.521010 -1.656600 39.081100 -0.000007 -0.000012 -0.001901 0.008129 13.159700 40.985400 -0.000006 -0.000013 -2.128300 14.711400 -69.442400 11.754300 -0.000000 0.000003 -0.001042 0.183636 -9.127580 -2.192510 6.469440 -0.000001 178.449000 6.150180 179.826000 -39.081100 -0.002282 -0.040193 0.012361 -0.050331 10.163200 -40.985400 0.000008 0.000006 -6.155640 5.681460 -67.528300 -11.754300 -0.000006 -0.000006 -0.010376 0.274095 -5.436870
0.000000 0.000000 0.000000 0.000000 0.000000 -0.000000 -1.939300 92.994700 2.390120 87.524700 -1.771060 -2.595970 15.735700 0.000005 -0.000001 109.517000 89.713300 -108.385000 8.984550 -0.406207 -0.000000 -7.224920 0.043142 2.272060 16.377300 -0.000001 -0.000001 -6.619260 2.723890 -2.098240 6.456720 -0.000001 -0.000000 -0.003503 3.381320 -0.671470 12.994200 -0.242716 4.980390 -90.620500 1.335020 -65.064600 5.348090 -0.000007 -0.000001 -41.792300 -49.097400 -6.130050 24.328600 0.000019 0.000005 0.000488 11.715700 -0.000000 22.291600 -0.000001 0.000005 -4.056760 4.505030 16.397100 12.994500 -0.242716 -4.980390 90.988700 -2.469250 -68.173600 -5.348130 -0.000001 -0.000004 -44.475300 -31.443200 1.129010 -24.328900 0.000322 -0.000009 -0.001125 -9.917290 -0.000058 -22.291500 -0.000108 -0.000004 -3.369980 4.967080 8.011020 -2.192480 -6.469440 -0.000000 -171.661000 -7.497690 -1.076510 39.081100 -0.000007 -0.000012 -0.003720 0.016483 12.717100 40.985400 -0.000006 -0.000013 -2.110010 14.381100 -69.881000 11.754300 -0.000000 0.000003 -0.001796 0.193758 -8.716110 -2.192510 6.469440 -0.000001 178.416000 6.025240 -179.575000 -39.081100 -0.002282 -0.040193 0.007941 -0.027453 9.515260 -40.985400 0.000008 0.000006 -6.502120 5.888920 -67.719400 -11.754300 -0.000006 -0.000006 -0.011227 0.280256 -5.184720
